<?xml version="1.0" encoding="UTF-8" standalone="no"?>
<!DOCTYPE svg PUBLIC "-//W3C//DTD SVG 1.1//EN"
 "http://www.w3.org/Graphics/SVG/1.1/DTD/svg11.dtd">
<!-- Generated by graphviz version 2.47.3 (20210619.1520)
 -->
<!-- Title: dependencies Pages: 1 -->
<svg width="934pt" height="185pt"
 viewBox="0.00 0.00 934.00 184.80" xmlns="http://www.w3.org/2000/svg" xmlns:xlink="http://www.w3.org/1999/xlink">
<g id="graph0" class="graph" transform="scale(1 1) rotate(0) translate(4 180.8)">
<title>dependencies</title>
<polygon fill="white" stroke="transparent" points="-4,4 -4,-180.8 930,-180.8 930,4 -4,4"/>
<text text-anchor="middle" x="463" y="-8.2" font-family="sans-serif" font-size="14.00">dependencies</text>
<g id="clust1" class="cluster">
<title>cluster_AppModule</title>
<polygon fill="none" stroke="black" stroke-dasharray="1,5" points="8,-32.8 8,-160.8 372,-160.8 372,-32.8 8,-32.8"/>
</g>
<g id="clust3" class="cluster">
<title>cluster_AppModule_imports</title>
<polygon fill="none" stroke="black" points="154,-40.8 154,-92.8 364,-92.8 364,-40.8 154,-40.8"/>
</g>
<g id="clust6" class="cluster">
<title>cluster_AppModule_providers</title>
<polygon fill="none" stroke="black" points="16,-40.8 16,-92.8 146,-92.8 146,-40.8 16,-40.8"/>
</g>
<g id="clust7" class="cluster">
<title>cluster_CatsModule</title>
<polygon fill="none" stroke="black" stroke-dasharray="1,5" points="380,-100.8 380,-168.8 636,-168.8 636,-100.8 380,-100.8"/>
</g>
<g id="clust10" class="cluster">
<title>cluster_CatsModule_exports</title>
<polygon fill="none" stroke="black" points="526,-108.8 526,-160.8 628,-160.8 628,-108.8 526,-108.8"/>
</g>
<g id="clust12" class="cluster">
<title>cluster_CatsModule_providers</title>
<polygon fill="none" stroke="black" points="388,-108.8 388,-160.8 518,-160.8 518,-108.8 388,-108.8"/>
</g>
<g id="clust13" class="cluster">
<title>cluster_UsersModule</title>
<polygon fill="none" stroke="black" stroke-dasharray="1,5" points="644,-100.8 644,-168.8 918,-168.8 918,-100.8 644,-100.8"/>
</g>
<g id="clust16" class="cluster">
<title>cluster_UsersModule_exports</title>
<polygon fill="none" stroke="black" points="800,-108.8 800,-160.8 910,-160.8 910,-108.8 800,-108.8"/>
</g>
<g id="clust18" class="cluster">
<title>cluster_UsersModule_providers</title>
<polygon fill="none" stroke="black" points="652,-108.8 652,-160.8 792,-160.8 792,-108.8 652,-108.8"/>
</g>
<!-- CatsModule -->
<g id="node1" class="node">
<title>CatsModule</title>
<polygon fill="#8dd3c7" stroke="black" points="246.44,-84.8 243.44,-88.8 222.44,-88.8 219.44,-84.8 161.56,-84.8 161.56,-48.8 246.44,-48.8 246.44,-84.8"/>
<text text-anchor="middle" x="204" y="-62.6" font-family="Times,serif" font-size="14.00">CatsModule</text>
</g>
<!-- AppModule -->
<g id="node3" class="node">
<title>AppModule</title>
<polygon fill="#8dd3c7" stroke="black" points="245.66,-152.8 242.66,-156.8 221.66,-156.8 218.66,-152.8 162.34,-152.8 162.34,-116.8 245.66,-116.8 245.66,-152.8"/>
<text text-anchor="middle" x="204" y="-130.6" font-family="Times,serif" font-size="14.00">AppModule</text>
</g>
<!-- CatsModule&#45;&gt;AppModule -->
<g id="edge1" class="edge">
<title>CatsModule&#45;&gt;AppModule</title>
<path fill="none" stroke="black" d="M190.06,-85.02C190.06,-85.02 190.06,-106.53 190.06,-106.53"/>
<polygon fill="black" stroke="black" points="186.56,-106.53 190.06,-116.53 193.56,-106.53 186.56,-106.53"/>
</g>
<!-- CatsService  -->
<g id="node5" class="node">
<title>CatsService </title>
<polygon fill="#fb8072" stroke="black" points="620.36,-152.8 533.64,-152.8 533.64,-116.8 620.36,-116.8 620.36,-152.8"/>
<text text-anchor="middle" x="577" y="-130.6" font-family="Times,serif" font-size="14.00">CatsService </text>
</g>
<!-- CatsModule&#45;&gt;CatsService  -->
<g id="edge4" class="edge">
<title>CatsModule&#45;&gt;CatsService </title>
<path fill="none" stroke="black" stroke-dasharray="5,2" d="M217.94,-84.99C217.94,-93.08 217.94,-100.8 217.94,-100.8 217.94,-100.8 577,-100.8 577,-100.8 577,-100.8 577,-106.61 577,-106.61"/>
<polygon fill="black" stroke="black" points="573.5,-106.61 577,-116.61 580.5,-106.61 573.5,-106.61"/>
</g>
<!-- UsersModule -->
<g id="node2" class="node">
<title>UsersModule</title>
<polygon fill="#8dd3c7" stroke="black" points="355.92,-84.8 352.92,-88.8 331.92,-88.8 328.92,-84.8 264.08,-84.8 264.08,-48.8 355.92,-48.8 355.92,-84.8"/>
<text text-anchor="middle" x="310" y="-62.6" font-family="Times,serif" font-size="14.00">UsersModule</text>
</g>
<!-- UsersModule&#45;&gt;AppModule -->
<g id="edge2" class="edge">
<title>UsersModule&#45;&gt;AppModule</title>
<path fill="none" stroke="black" d="M310,-85.09C310,-107.01 310,-140.8 310,-140.8 310,-140.8 255.89,-140.8 255.89,-140.8"/>
<polygon fill="black" stroke="black" points="255.89,-137.3 245.89,-140.8 255.89,-144.3 255.89,-137.3"/>
</g>
<!-- UsersService  -->
<g id="node7" class="node">
<title>UsersService </title>
<polygon fill="#fb8072" stroke="black" points="901.85,-152.8 808.15,-152.8 808.15,-116.8 901.85,-116.8 901.85,-152.8"/>
<text text-anchor="middle" x="855" y="-130.6" font-family="Times,serif" font-size="14.00">UsersService </text>
</g>
<!-- UsersModule&#45;&gt;UsersService  -->
<g id="edge6" class="edge">
<title>UsersModule&#45;&gt;UsersService </title>
<path fill="none" stroke="black" stroke-dasharray="5,2" d="M356,-60.8C487.39,-60.8 855,-60.8 855,-60.8 855,-60.8 855,-106.51 855,-106.51"/>
<polygon fill="black" stroke="black" points="851.5,-106.51 855,-116.51 858.5,-106.51 851.5,-106.51"/>
</g>
<!-- AppService -->
<g id="node4" class="node">
<title>AppService</title>
<ellipse fill="#fdb462" stroke="black" cx="81" cy="-66.8" rx="56.74" ry="18"/>
<text text-anchor="middle" x="81" y="-62.6" font-family="Times,serif" font-size="14.00">AppService</text>
</g>
<!-- AppService&#45;&gt;AppModule -->
<g id="edge3" class="edge">
<title>AppService&#45;&gt;AppModule</title>
<path fill="none" stroke="black" d="M81,-85.02C81,-105.17 81,-134.8 81,-134.8 81,-134.8 152.01,-134.8 152.01,-134.8"/>
<polygon fill="black" stroke="black" points="152.01,-138.3 162.01,-134.8 152.01,-131.3 152.01,-138.3"/>
</g>
<!-- CatsService -->
<g id="node6" class="node">
<title>CatsService</title>
<ellipse fill="#fdb462" stroke="black" cx="453" cy="-134.8" rx="57.32" ry="18"/>
<text text-anchor="middle" x="453" y="-130.6" font-family="Times,serif" font-size="14.00">CatsService</text>
</g>
<!-- CatsService&#45;&gt;CatsModule -->
<g id="edge5" class="edge">
<title>CatsService&#45;&gt;CatsModule</title>
<path fill="none" stroke="black" d="M398.96,-128.8C340.42,-128.8 255.25,-128.8 255.25,-128.8 255.25,-128.8 255.25,-66.8 255.25,-66.8 255.25,-66.8 254.36,-66.8 254.36,-66.8"/>
<polygon fill="black" stroke="black" points="256.33,-63.3 246.33,-66.8 256.33,-70.3 256.33,-63.3"/>
</g>
<!-- UsersService -->
<g id="node8" class="node">
<title>UsersService</title>
<ellipse fill="#fdb462" stroke="black" cx="722" cy="-134.8" rx="61.95" ry="18"/>
<text text-anchor="middle" x="722" y="-130.6" font-family="Times,serif" font-size="14.00">UsersService</text>
</g>
<!-- UsersService&#45;&gt;UsersModule -->
<g id="edge7" class="edge">
<title>UsersService&#45;&gt;UsersModule</title>
<path fill="none" stroke="black" d="M722,-116.53C722,-98.24 722,-72.8 722,-72.8 722,-72.8 366.06,-72.8 366.06,-72.8"/>
<polygon fill="black" stroke="black" points="366.06,-69.3 356.06,-72.8 366.06,-76.3 366.06,-69.3"/>
</g>
</g>
</svg>
